<?xml version="1.0" standalone="no"?>
<svg version="1.0" xmlns="http://www.w3.org/2000/svg"
 width="320.000000pt" height="180.000000pt" viewBox="0 0 320.000000 180.000000"
 preserveAspectRatio="xMidYMid meet">

<g transform="translate(0.000000,180.000000) scale(0.100000,-0.100000)"
fill="#000000" stroke="none">
<path d="M0 900 l0 -900 1600 0 1600 0 0 900 0 900 -1600 0 -1600 0 0 -900z
m1268 878 c19 -19 14 -52 -9 -66 -12 -7 -22 -12 -22 -10 -1 2 -8 13 -14 25
-15 27 -17 46 -2 21 5 -10 19 -18 29 -18 25 0 27 35 3 49 -10 6 -13 11 -7 11
5 0 15 -5 22 -12z m-758 -44 c0 -2 -7 -4 -15 -4 -8 0 -15 4 -15 10 0 5 7 7 15
4 8 -4 15 -8 15 -10z m43 -11 c-7 -2 -19 -2 -25 0 -7 3 -2 5 12 5 14 0 19 -2
13 -5z m-233 -18 c0 -11 11 -15 40 -15 29 0 40 4 40 15 0 11 11 15 41 15 l42
0 -29 -28 c-16 -15 -39 -34 -50 -42 -20 -14 -14 -15 58 -11 73 3 79 2 76 -15
-2 -14 4 -20 26 -22 39 -5 74 5 78 22 2 10 22 5 78 -22 48 -22 69 -37 58 -39
-24 -6 -23 -20 2 -35 27 -17 28 -58 1 -51 -11 3 -27 -3 -39 -15 -20 -20 -21
-20 -37 -2 -9 10 -13 20 -8 22 4 3 2 3 -5 1 -7 -1 -23 4 -35 11 -51 33 -178
44 -230 22 -12 -6 -16 -4 -12 6 3 8 -7 19 -27 29 -112 54 -148 75 -148 87 0 7
-11 17 -25 22 -29 11 -31 17 -8 42 21 24 113 26 113 3z m600 5 c0 -15 -50 -21
-69 -8 -16 12 -13 13 25 15 24 1 44 -2 44 -7z m116 -34 c-5 -33 -4 -34 36 -40
22 -4 45 -3 52 2 6 5 23 6 38 3 39 -8 21 -33 -26 -34 -20 -1 -31 -4 -24 -8 7
-5 10 -11 6 -14 -9 -9 -80 16 -95 33 -7 9 -19 12 -30 8 -13 -5 -12 -1 6 18 14
14 21 29 18 33 -6 5 10 33 19 33 2 0 2 -15 0 -34z m-46 14 c0 -5 -4 -10 -10
-10 -5 0 -10 5 -10 10 0 6 5 10 10 10 6 0 10 -4 10 -10z m-270 -36 c0 -8 -4
-12 -10 -9 -5 3 -10 10 -10 16 0 5 5 9 10 9 6 0 10 -7 10 -16z m243 1 c-3 -9
-8 -14 -10 -11 -3 3 -2 9 2 15 9 16 15 13 8 -4z m-53 -41 c0 -2 -7 -4 -15 -4
-8 0 -15 4 -15 10 0 5 7 7 15 4 8 -4 15 -8 15 -10z m-60 -14 c0 -5 -11 -10
-25 -10 -14 0 -25 5 -25 10 0 6 11 10 25 10 14 0 25 -4 25 -10z m110 -14 c0
-23 17 -28 34 -11 14 14 18 14 43 1 16 -8 22 -15 16 -16 -21 0 -15 -30 10 -50
12 -10 19 -21 16 -24 -3 -3 -33 -8 -67 -10 -45 -4 -64 -1 -72 10 -13 15 -40
19 -40 6 0 -5 -21 -9 -46 -11 -50 -2 -52 9 -5 29 16 6 31 20 34 31 3 10 10 19
16 19 6 0 8 -7 4 -16 -5 -14 -1 -16 20 -12 14 3 28 0 31 -6 2 -6 5 -3 5 7 1
10 -10 22 -24 27 -25 9 -31 21 -18 33 12 13 43 7 43 -7z m25 4 c3 -5 1 -10 -4
-10 -6 0 -11 5 -11 10 0 6 2 10 4 10 3 0 8 -4 11 -10z m-612 -49 c15 -8 27
-17 27 -21 0 -4 -18 -19 -40 -34 l-41 -27 5 27 c3 15 11 31 18 35 9 6 8 11 -3
25 -15 18 -12 18 34 -5z m-89 -51 c24 -26 27 -35 19 -53 -10 -21 -11 -20 -17
11 -9 37 -13 39 -33 15 -14 -17 -14 -17 -9 0 4 13 0 17 -19 17 -27 0 -32 9
-13 28 20 20 41 14 72 -18z m871 -20 c3 -5 -1 -10 -10 -10 -9 0 -13 5 -10 10
3 6 8 10 10 10 2 0 7 -4 10 -10z m-565 -230 c0 -5 -2 -10 -4 -10 -3 0 -8 5
-11 10 -3 6 -1 10 4 10 6 0 11 -4 11 -10z m425 -150 c-3 -5 -14 -10 -23 -10
-15 0 -15 2 -2 10 20 13 33 13 25 0z m-115 -55 c0 -5 -5 -3 -10 5 -5 8 -10 20
-10 25 0 6 5 3 10 -5 5 -8 10 -19 10 -25z m95 5 c-3 -5 -13 -10 -21 -10 -8 0
-14 5 -14 10 0 6 9 10 21 10 11 0 17 -4 14 -10z m-46 -41 c-8 -5 -23 -8 -34
-8 -11 0 -14 3 -7 6 6 2 10 9 6 14 -3 5 -1 9 5 9 5 0 12 -6 14 -12 3 -7 6 -2
7 12 1 23 2 23 11 6 9 -14 8 -20 -2 -27z m1671 -94 c0 -19 -4 -35 -10 -35 -5
0 -10 16 -10 35 0 19 5 35 10 35 6 0 10 -16 10 -35z m-903 -24 c-5 -23 -2 -31
11 -34 12 -3 13 -5 2 -6 -8 0 -22 3 -30 9 -12 7 -12 12 0 34 18 34 24 33 17
-3z m233 -11 c0 -4 -7 -10 -15 -14 -10 -4 -15 1 -15 14 0 13 5 18 15 14 8 -4
15 -10 15 -14z m-270 0 c0 -5 -5 -10 -11 -10 -5 0 -7 5 -4 10 3 6 8 10 11 10
2 0 4 -4 4 -10z m235 -40 c-3 -5 -10 -10 -16 -10 -5 0 -9 5 -9 10 0 6 7 10 16
10 8 0 12 -4 9 -10z m-67 -33 c24 -19 13 -37 -23 -37 -19 0 -35 -4 -35 -10 0
-5 -7 -10 -15 -10 -8 0 -15 6 -15 14 0 8 -11 23 -25 34 -13 11 -22 22 -18 26
9 8 116 -5 131 -17z m792 -79 c0 -16 -4 -28 -10 -28 -13 0 -24 46 -16 67 6 15
8 15 16 3 6 -8 10 -27 10 -42z m-122 -65 c-6 -7 -16 -13 -22 -12 -7 0 -6 2 2
6 6 2 12 17 13 31 0 24 1 25 8 7 5 -11 4 -25 -1 -32z m-731 -410 c-3 -10 -5
-4 -5 12 0 17 2 24 5 18 2 -7 2 -21 0 -30z"/>
<path d="M438 1543 c7 -3 16 -2 19 1 4 3 -2 6 -13 5 -11 0 -14 -3 -6 -6z"/>
<path d="M624 1543 c15 -4 16 -7 5 -14 -11 -7 -11 -9 2 -9 9 0 19 7 23 15 4
11 -2 15 -22 14 -19 -1 -22 -3 -8 -6z"/>
<path d="M368 1513 c7 -3 16 -2 19 1 4 3 -2 6 -13 5 -11 0 -14 -3 -6 -6z"/>
</g>
</svg>
